<mxfile host="Electron" agent="Mozilla/5.0 (Windows NT 10.0; Win64; x64) AppleWebKit/537.36 (KHTML, like Gecko) draw.io/28.1.2 Chrome/138.0.7204.243 Electron/37.4.0 Safari/537.36" version="28.1.2">
  <diagram name="Page-1" id="08FGlIk4cyvWSVDsEzVf">
    <mxGraphModel dx="2742" dy="626" grid="1" gridSize="10" guides="1" tooltips="1" connect="1" arrows="1" fold="1" page="1" pageScale="1" pageWidth="850" pageHeight="1100" math="0" shadow="0">
      <root>
        <mxCell id="0" />
        <mxCell id="1" parent="0" />
        <mxCell id="HtvwIsF9TS4IH46_lFR8-40" value="" style="edgeStyle=orthogonalEdgeStyle;rounded=0;orthogonalLoop=1;jettySize=auto;html=1;" parent="1" source="HtvwIsF9TS4IH46_lFR8-11" target="HtvwIsF9TS4IH46_lFR8-14" edge="1">
          <mxGeometry relative="1" as="geometry" />
        </mxCell>
        <mxCell id="HtvwIsF9TS4IH46_lFR8-11" value="Evento (Trigger) é disparado para Lambda Function ao identificar o carregamento de um novo arquivo no S3 (supermarket-sales-data)" style="text;html=1;align=center;verticalAlign=middle;whiteSpace=wrap;rounded=0;" parent="1" vertex="1">
          <mxGeometry x="620" y="147" width="140" height="93" as="geometry" />
        </mxCell>
        <mxCell id="HtvwIsF9TS4IH46_lFR8-25" value="" style="group" parent="1" vertex="1" connectable="0">
          <mxGeometry x="-1275" y="652" width="66" height="110" as="geometry" />
        </mxCell>
        <mxCell id="HtvwIsF9TS4IH46_lFR8-1" value="" style="outlineConnect=0;dashed=0;verticalLabelPosition=bottom;verticalAlign=top;align=center;html=1;shape=mxgraph.aws3.users;fillColor=#D2D3D3;gradientColor=none;textShadow=1;" parent="HtvwIsF9TS4IH46_lFR8-25" vertex="1">
          <mxGeometry width="66" height="63" as="geometry" />
        </mxCell>
        <mxCell id="HtvwIsF9TS4IH46_lFR8-5" value="Rede de Supermercados" style="text;html=1;align=center;verticalAlign=middle;whiteSpace=wrap;rounded=0;" parent="HtvwIsF9TS4IH46_lFR8-25" vertex="1">
          <mxGeometry x="2" y="70" width="64" height="40" as="geometry" />
        </mxCell>
        <mxCell id="HtvwIsF9TS4IH46_lFR8-27" value="" style="group" parent="1" vertex="1" connectable="0">
          <mxGeometry x="900" y="83.5" width="132" height="172" as="geometry" />
        </mxCell>
        <mxCell id="HtvwIsF9TS4IH46_lFR8-28" value="" style="group" parent="HtvwIsF9TS4IH46_lFR8-27" vertex="1" connectable="0">
          <mxGeometry width="132" height="172" as="geometry" />
        </mxCell>
        <mxCell id="HtvwIsF9TS4IH46_lFR8-8" value="" style="outlineConnect=0;dashed=0;verticalLabelPosition=bottom;verticalAlign=top;align=center;html=1;shape=mxgraph.aws3.lambda_function;fillColor=#F58534;gradientColor=none;" parent="HtvwIsF9TS4IH46_lFR8-28" vertex="1">
          <mxGeometry x="31.5" width="69" height="72" as="geometry" />
        </mxCell>
        <mxCell id="HtvwIsF9TS4IH46_lFR8-14" value="&lt;div&gt;Lambda Function&amp;nbsp;&lt;/div&gt;Le o arquivo CSV do S3&lt;div&gt;Valida e transforma os dados (ex: converte datas, formata valores)&lt;br&gt;&lt;div&gt;&lt;br&gt;&lt;/div&gt;&lt;/div&gt;" style="text;html=1;align=center;verticalAlign=middle;whiteSpace=wrap;rounded=0;" parent="HtvwIsF9TS4IH46_lFR8-28" vertex="1">
          <mxGeometry y="72" width="132" height="100" as="geometry" />
        </mxCell>
        <mxCell id="HtvwIsF9TS4IH46_lFR8-35" value="" style="group" parent="1" vertex="1" connectable="0">
          <mxGeometry x="-670" y="518" width="256.3" height="210" as="geometry" />
        </mxCell>
        <mxCell id="HtvwIsF9TS4IH46_lFR8-22" value="" style="points=[];aspect=fixed;html=1;align=center;shadow=0;dashed=0;fillColor=#FF6A00;strokeColor=none;shape=mxgraph.alibaba_cloud.apigateway;" parent="HtvwIsF9TS4IH46_lFR8-35" vertex="1">
          <mxGeometry x="91.00999999999999" width="74.28" height="71.7" as="geometry" />
        </mxCell>
        <mxCell id="HtvwIsF9TS4IH46_lFR8-33" value="Amazon API Gateway&lt;br&gt;&lt;div&gt;&lt;br&gt;&lt;/div&gt;&lt;div&gt;Porta de entrada (“gateway”) para clientes que precisam acessar aplicações, dados ou serviços hospedados na AWS ou fora dela&lt;/div&gt;&lt;div&gt;Permite criar, publicar, proteger, monitorar e escalar APIs&lt;/div&gt;" style="text;html=1;align=center;verticalAlign=middle;whiteSpace=wrap;rounded=0;" parent="HtvwIsF9TS4IH46_lFR8-35" vertex="1">
          <mxGeometry y="56" width="256.3" height="154" as="geometry" />
        </mxCell>
        <mxCell id="HtvwIsF9TS4IH46_lFR8-61" value="" style="edgeStyle=orthogonalEdgeStyle;rounded=0;orthogonalLoop=1;jettySize=auto;html=1;" parent="1" source="HtvwIsF9TS4IH46_lFR8-33" target="HtvwIsF9TS4IH46_lFR8-7" edge="1">
          <mxGeometry relative="1" as="geometry">
            <Array as="points">
              <mxPoint x="-302" y="380" />
              <mxPoint x="110" y="380" />
              <mxPoint x="110" y="240" />
            </Array>
          </mxGeometry>
        </mxCell>
        <mxCell id="HtvwIsF9TS4IH46_lFR8-62" value="" style="edgeStyle=orthogonalEdgeStyle;rounded=0;orthogonalLoop=1;jettySize=auto;html=1;" parent="1" source="HtvwIsF9TS4IH46_lFR8-7" target="HtvwIsF9TS4IH46_lFR8-11" edge="1">
          <mxGeometry relative="1" as="geometry" />
        </mxCell>
        <mxCell id="HtvwIsF9TS4IH46_lFR8-70" value="" style="group" parent="1" vertex="1" connectable="0">
          <mxGeometry x="300" y="90" width="170" height="178.5" as="geometry" />
        </mxCell>
        <mxCell id="HtvwIsF9TS4IH46_lFR8-3" value="" style="outlineConnect=0;dashed=0;verticalLabelPosition=bottom;verticalAlign=top;align=center;html=1;shape=mxgraph.aws3.s3;fillColor=#E05243;gradientColor=none;container=0;" parent="HtvwIsF9TS4IH46_lFR8-70" vertex="1">
          <mxGeometry x="40" width="76.5" height="93" as="geometry" />
        </mxCell>
        <mxCell id="HtvwIsF9TS4IH46_lFR8-7" value="S3&amp;nbsp;&lt;div&gt;(supermarket-sales-data)&lt;div&gt;Armazena arquivos CSV com dados de Vendas Diárias&lt;/div&gt;&lt;/div&gt;" style="text;html=1;align=center;verticalAlign=middle;whiteSpace=wrap;rounded=0;container=0;" parent="HtvwIsF9TS4IH46_lFR8-70" vertex="1">
          <mxGeometry y="98.5" width="170" height="80" as="geometry" />
        </mxCell>
        <mxCell id="HtvwIsF9TS4IH46_lFR8-76" value="" style="edgeStyle=orthogonalEdgeStyle;rounded=0;orthogonalLoop=1;jettySize=auto;html=1;" parent="1" source="HtvwIsF9TS4IH46_lFR8-14" target="HtvwIsF9TS4IH46_lFR8-69" edge="1">
          <mxGeometry relative="1" as="geometry" />
        </mxCell>
        <mxCell id="HtvwIsF9TS4IH46_lFR8-78" value="" style="edgeStyle=orthogonalEdgeStyle;rounded=0;orthogonalLoop=1;jettySize=auto;html=1;" parent="1" source="HtvwIsF9TS4IH46_lFR8-68" target="HtvwIsF9TS4IH46_lFR8-17" edge="1">
          <mxGeometry relative="1" as="geometry" />
        </mxCell>
        <mxCell id="HtvwIsF9TS4IH46_lFR8-81" value="" style="group" parent="1" vertex="1" connectable="0">
          <mxGeometry x="865.25" y="960" width="166.75" height="187" as="geometry" />
        </mxCell>
        <mxCell id="HtvwIsF9TS4IH46_lFR8-19" value="" style="outlineConnect=0;dashed=0;verticalLabelPosition=bottom;verticalAlign=top;align=center;html=1;shape=mxgraph.aws3.volume;fillColor=#E05243;gradientColor=none;container=0;" parent="HtvwIsF9TS4IH46_lFR8-81" vertex="1">
          <mxGeometry x="53.75" width="52.5" height="75" as="geometry" />
        </mxCell>
        <mxCell id="HtvwIsF9TS4IH46_lFR8-20" value="EBS&lt;div&gt;Disco de armazenamento&amp;nbsp; para a instância EC2&amp;nbsp;&lt;div&gt;Armazena SO, a aplicação ,&amp;nbsp; suas dependências e o banco de dados MySQL (dados e logs)&lt;/div&gt;&lt;/div&gt;" style="text;html=1;align=center;verticalAlign=middle;whiteSpace=wrap;rounded=0;container=0;" parent="HtvwIsF9TS4IH46_lFR8-81" vertex="1">
          <mxGeometry y="67" width="166.75" height="120" as="geometry" />
        </mxCell>
        <mxCell id="HtvwIsF9TS4IH46_lFR8-93" value="" style="group" parent="1" vertex="1" connectable="0">
          <mxGeometry x="-1320" y="410" width="190" height="129" as="geometry" />
        </mxCell>
        <mxCell id="HtvwIsF9TS4IH46_lFR8-6" value="Envio de CSV com dados de vendas diárias via AWS CLI , SDK ou interface WEB" style="text;html=1;align=center;verticalAlign=middle;whiteSpace=wrap;rounded=0;container=0;" parent="HtvwIsF9TS4IH46_lFR8-93" vertex="1">
          <mxGeometry y="89" width="190" height="40" as="geometry" />
        </mxCell>
        <mxCell id="HtvwIsF9TS4IH46_lFR8-43" value="" style="verticalAlign=top;verticalLabelPosition=bottom;labelPosition=center;align=center;html=1;outlineConnect=0;gradientDirection=north;strokeWidth=2;shape=mxgraph.networks.terminal;fillColor=#f9f7ed;strokeColor=#36393d;container=0;" parent="HtvwIsF9TS4IH46_lFR8-93" vertex="1">
          <mxGeometry x="50" width="80" height="65" as="geometry" />
        </mxCell>
        <mxCell id="HtvwIsF9TS4IH46_lFR8-96" value="" style="group" parent="1" vertex="1" connectable="0">
          <mxGeometry y="990" width="220" height="170" as="geometry" />
        </mxCell>
        <mxCell id="HtvwIsF9TS4IH46_lFR8-90" value="" style="outlineConnect=0;dashed=0;verticalLabelPosition=bottom;verticalAlign=top;align=center;html=1;shape=mxgraph.aws3.s3;fillColor=#E05243;gradientColor=none;" parent="HtvwIsF9TS4IH46_lFR8-96" vertex="1">
          <mxGeometry x="71.75" width="76.5" height="93" as="geometry" />
        </mxCell>
        <mxCell id="HtvwIsF9TS4IH46_lFR8-91" value="S3&amp;nbsp;&lt;div&gt;(supermarket-reports)&lt;/div&gt;&lt;div&gt;Armazena relatórios que foram gerados pela aplicação Java hospedada na EC2&lt;/div&gt;&lt;div&gt;&lt;br&gt;&lt;/div&gt;" style="text;html=1;align=center;verticalAlign=middle;whiteSpace=wrap;rounded=0;" parent="HtvwIsF9TS4IH46_lFR8-96" vertex="1">
          <mxGeometry y="110" width="220" height="60" as="geometry" />
        </mxCell>
        <mxCell id="HtvwIsF9TS4IH46_lFR8-98" value="" style="edgeStyle=orthogonalEdgeStyle;rounded=0;orthogonalLoop=1;jettySize=auto;html=1;entryX=0.878;entryY=-0.03;entryDx=0;entryDy=0;entryPerimeter=0;" parent="1" source="HtvwIsF9TS4IH46_lFR8-74" target="HtvwIsF9TS4IH46_lFR8-91" edge="1">
          <mxGeometry relative="1" as="geometry">
            <mxPoint x="380" y="937" as="targetPoint" />
            <Array as="points">
              <mxPoint x="592" y="990" />
              <mxPoint x="382" y="990" />
              <mxPoint x="382" y="1098" />
            </Array>
          </mxGeometry>
        </mxCell>
        <mxCell id="HtvwIsF9TS4IH46_lFR8-99" value="" style="group" parent="1" vertex="1" connectable="0">
          <mxGeometry x="850" y="350" width="220" height="110" as="geometry" />
        </mxCell>
        <mxCell id="HtvwIsF9TS4IH46_lFR8-68" value="&lt;div&gt;&lt;br&gt;&lt;/div&gt;&lt;div&gt;Conecta-se ao banco de dados MySQL rodando na instância EC2&lt;/div&gt;&lt;div&gt;&lt;div&gt;&lt;span style=&quot;background-color: transparent; color: light-dark(rgb(0, 0, 0), rgb(255, 255, 255));&quot;&gt;para inserir os dados formatados do CSV no banco&lt;/span&gt;&lt;/div&gt;&lt;/div&gt;" style="text;html=1;align=center;verticalAlign=middle;whiteSpace=wrap;rounded=0;container=0;" parent="HtvwIsF9TS4IH46_lFR8-99" vertex="1">
          <mxGeometry y="45" width="220" height="65" as="geometry" />
        </mxCell>
        <mxCell id="HtvwIsF9TS4IH46_lFR8-69" value="" style="points=[];aspect=fixed;html=1;align=center;shadow=0;dashed=0;fillColor=#FF6A00;strokeColor=none;shape=mxgraph.alibaba_cloud.mysql;container=0;" parent="HtvwIsF9TS4IH46_lFR8-99" vertex="1">
          <mxGeometry x="79" width="48.300000000000004" height="45" as="geometry" />
        </mxCell>
        <mxCell id="HtvwIsF9TS4IH46_lFR8-104" value="" style="endArrow=classic;html=1;rounded=0;exitX=0.5;exitY=1;exitDx=0;exitDy=0;" parent="1" source="HtvwIsF9TS4IH46_lFR8-18" edge="1">
          <mxGeometry width="50" height="50" relative="1" as="geometry">
            <mxPoint x="690" y="1030" as="sourcePoint" />
            <mxPoint x="950" y="950" as="targetPoint" />
          </mxGeometry>
        </mxCell>
        <mxCell id="HtvwIsF9TS4IH46_lFR8-105" value="" style="endArrow=classic;html=1;rounded=0;entryX=0.989;entryY=0.144;entryDx=0;entryDy=0;entryPerimeter=0;" parent="1" source="HtvwIsF9TS4IH46_lFR8-18" target="HtvwIsF9TS4IH46_lFR8-74" edge="1">
          <mxGeometry width="50" height="50" relative="1" as="geometry">
            <mxPoint x="880" y="830" as="sourcePoint" />
            <mxPoint x="930" y="780" as="targetPoint" />
          </mxGeometry>
        </mxCell>
        <mxCell id="HtvwIsF9TS4IH46_lFR8-109" value="" style="endArrow=classic;html=1;rounded=0;exitX=1;exitY=0.75;exitDx=0;exitDy=0;entryX=0.21;entryY=0.232;entryDx=0;entryDy=0;entryPerimeter=0;" parent="1" source="HtvwIsF9TS4IH46_lFR8-6" target="HtvwIsF9TS4IH46_lFR8-36" edge="1">
          <mxGeometry width="50" height="50" relative="1" as="geometry">
            <mxPoint x="-560" y="530" as="sourcePoint" />
            <mxPoint x="-510" y="480" as="targetPoint" />
          </mxGeometry>
        </mxCell>
        <mxCell id="V9F5mqnzi73-AguXH6qU-1" value="" style="group" parent="1" vertex="1" connectable="0">
          <mxGeometry x="830" y="550" width="260" height="212" as="geometry" />
        </mxCell>
        <mxCell id="HtvwIsF9TS4IH46_lFR8-17" value="" style="sketch=0;points=[[0,0,0],[0.25,0,0],[0.5,0,0],[0.75,0,0],[1,0,0],[0,1,0],[0.25,1,0],[0.5,1,0],[0.75,1,0],[1,1,0],[0,0.25,0],[0,0.5,0],[0,0.75,0],[1,0.25,0],[1,0.5,0],[1,0.75,0]];outlineConnect=0;fontColor=#232F3E;fillColor=#ED7100;strokeColor=#ffffff;dashed=0;verticalLabelPosition=bottom;verticalAlign=top;align=center;html=1;fontSize=12;fontStyle=0;aspect=fixed;shape=mxgraph.aws4.resourceIcon;resIcon=mxgraph.aws4.ec2;container=0;" parent="V9F5mqnzi73-AguXH6qU-1" vertex="1">
          <mxGeometry x="87.75" width="78" height="78" as="geometry" />
        </mxCell>
        <mxCell id="HtvwIsF9TS4IH46_lFR8-18" value="&lt;div&gt;EC2&lt;/div&gt;&lt;div&gt;Máquina Virtual do Servidor onde roda a aplicação principal que gerencia o sistema do supermercado (backend)&amp;nbsp;&lt;/div&gt;&lt;div&gt;A aplicação é uma API que recebe os dados das lojas e os processa&lt;/div&gt;&lt;div&gt;Mantém o&amp;nbsp;&lt;span style=&quot;background-color: transparent; color: light-dark(rgb(0, 0, 0), rgb(255, 255, 255));&quot;&gt;banco de dados MySQL rodando na instância&amp;nbsp;&lt;/span&gt;&lt;/div&gt;" style="text;html=1;align=center;verticalAlign=middle;whiteSpace=wrap;rounded=0;container=0;" parent="V9F5mqnzi73-AguXH6qU-1" vertex="1">
          <mxGeometry y="90" width="260" height="122" as="geometry" />
        </mxCell>
        <mxCell id="V9F5mqnzi73-AguXH6qU-4" value="" style="group" parent="1" vertex="1" connectable="0">
          <mxGeometry x="-79.5" y="711" width="379" height="198" as="geometry" />
        </mxCell>
        <mxCell id="V9F5mqnzi73-AguXH6qU-2" value="" style="outlineConnect=0;dashed=0;verticalLabelPosition=bottom;verticalAlign=top;align=center;html=1;shape=mxgraph.aws3.lambda_function;fillColor=#F58534;gradientColor=none;" parent="V9F5mqnzi73-AguXH6qU-4" vertex="1">
          <mxGeometry x="155" width="69" height="72" as="geometry" />
        </mxCell>
        <mxCell id="V9F5mqnzi73-AguXH6qU-3" value="Lambda Function&lt;div&gt;&lt;div&gt;&amp;nbsp;Valida os parâmetros de entrada.&lt;/div&gt;&lt;div&gt;&amp;nbsp; &amp;nbsp;Constrói o caminho (key) do arquivo no S3 baseado nos parâmetros recebidos&lt;/div&gt;&lt;div&gt;&amp;nbsp; &amp;nbsp;Utiliza o SDK da AWS para ler o arquivo do bucket S3&lt;/div&gt;&lt;div&gt;&amp;nbsp; &amp;nbsp;Processa o relatório, se necessário (ex.: filtrar dados, formatar).&lt;/div&gt;&lt;div&gt;&amp;nbsp; &amp;nbsp;Retorna os dados no corpo da resposta.&lt;/div&gt;&lt;/div&gt;" style="text;html=1;align=center;verticalAlign=middle;whiteSpace=wrap;rounded=0;" parent="V9F5mqnzi73-AguXH6qU-4" vertex="1">
          <mxGeometry y="82" width="379" height="116" as="geometry" />
        </mxCell>
        <mxCell id="V9F5mqnzi73-AguXH6qU-5" value="" style="endArrow=classic;html=1;rounded=0;exitX=0.334;exitY=1.031;exitDx=0;exitDy=0;exitPerimeter=0;" parent="1" source="HtvwIsF9TS4IH46_lFR8-33" edge="1">
          <mxGeometry width="50" height="50" relative="1" as="geometry">
            <mxPoint x="-110" y="690" as="sourcePoint" />
            <mxPoint x="-70" y="850" as="targetPoint" />
            <Array as="points">
              <mxPoint x="-590" y="850" />
            </Array>
          </mxGeometry>
        </mxCell>
        <mxCell id="V9F5mqnzi73-AguXH6qU-6" value="Consulta de Relatórios de Gestão de Estoque e Vendas por Período&lt;div&gt;A Lambda Function é acionada com o evento (Trigger) contendo os parâmetros da requisição (ex.: data do relatório)&lt;/div&gt;" style="text;html=1;align=center;verticalAlign=middle;whiteSpace=wrap;rounded=0;" parent="1" vertex="1">
          <mxGeometry x="-560" y="749" width="380" height="160" as="geometry" />
        </mxCell>
        <mxCell id="V9F5mqnzi73-AguXH6qU-8" value="" style="endArrow=classic;html=1;rounded=0;exitX=0.5;exitY=1;exitDx=0;exitDy=0;entryX=0.5;entryY=0;entryDx=0;entryDy=0;entryPerimeter=0;" parent="1" source="V9F5mqnzi73-AguXH6qU-3" target="HtvwIsF9TS4IH46_lFR8-90" edge="1">
          <mxGeometry width="50" height="50" relative="1" as="geometry">
            <mxPoint x="280" y="920" as="sourcePoint" />
            <mxPoint x="330" y="870" as="targetPoint" />
          </mxGeometry>
        </mxCell>
        <mxCell id="V9F5mqnzi73-AguXH6qU-9" value="" style="endArrow=classic;html=1;rounded=0;entryX=1;entryY=0.75;entryDx=0;entryDy=0;" parent="1" target="HtvwIsF9TS4IH46_lFR8-33" edge="1">
          <mxGeometry width="50" height="50" relative="1" as="geometry">
            <mxPoint x="70" y="750" as="sourcePoint" />
            <mxPoint x="-200" y="910" as="targetPoint" />
          </mxGeometry>
        </mxCell>
        <mxCell id="V9F5mqnzi73-AguXH6qU-10" value="Retorna os dados dos relatórios no corpo da resposta" style="text;html=1;align=center;verticalAlign=middle;whiteSpace=wrap;rounded=0;" parent="1" vertex="1">
          <mxGeometry x="-250" y="680" width="145" height="30" as="geometry" />
        </mxCell>
        <mxCell id="V9F5mqnzi73-AguXH6qU-11" value="" style="endArrow=classic;html=1;rounded=0;entryX=0.421;entryY=1.025;entryDx=0;entryDy=0;entryPerimeter=0;exitX=0.5;exitY=0.2;exitDx=0;exitDy=0;exitPerimeter=0;" parent="1" source="HtvwIsF9TS4IH46_lFR8-1" target="HtvwIsF9TS4IH46_lFR8-6" edge="1">
          <mxGeometry width="50" height="50" relative="1" as="geometry">
            <mxPoint x="-1160" y="610" as="sourcePoint" />
            <mxPoint x="-1100" y="440" as="targetPoint" />
          </mxGeometry>
        </mxCell>
        <mxCell id="V9F5mqnzi73-AguXH6qU-13" value="" style="group" parent="1" vertex="1" connectable="0">
          <mxGeometry x="-1020" y="536" width="230" height="144" as="geometry" />
        </mxCell>
        <mxCell id="HtvwIsF9TS4IH46_lFR8-36" value="" style="ellipse;shape=cloud;whiteSpace=wrap;html=1;" parent="V9F5mqnzi73-AguXH6qU-13" vertex="1">
          <mxGeometry width="230" height="144" as="geometry" />
        </mxCell>
        <mxCell id="HtvwIsF9TS4IH46_lFR8-37" value="Internet" style="text;html=1;align=center;verticalAlign=middle;whiteSpace=wrap;rounded=0;" parent="V9F5mqnzi73-AguXH6qU-13" vertex="1">
          <mxGeometry x="57.5" y="47.700000000000045" width="115" height="54" as="geometry" />
        </mxCell>
        <mxCell id="V9F5mqnzi73-AguXH6qU-14" value="" style="endArrow=classic;html=1;rounded=0;" parent="1" target="HtvwIsF9TS4IH46_lFR8-33" edge="1">
          <mxGeometry width="50" height="50" relative="1" as="geometry">
            <mxPoint x="-810" y="650" as="sourcePoint" />
            <mxPoint x="-710" y="690" as="targetPoint" />
          </mxGeometry>
        </mxCell>
        <mxCell id="HtvwIsF9TS4IH46_lFR8-72" value="" style="dashed=0;outlineConnect=0;html=1;align=center;labelPosition=center;verticalLabelPosition=bottom;verticalAlign=top;shape=mxgraph.weblogos.java;container=0;" parent="1" vertex="1">
          <mxGeometry x="548.7330541871921" y="800" width="52.53201970443348" height="115.3225806451613" as="geometry" />
        </mxCell>
        <mxCell id="HtvwIsF9TS4IH46_lFR8-74" value="Aplicação Java hospedada na EC2 recupera dados gravados das vendas diárias e gera novos relatórios pra depois gravar esses relatórios na S3 (supermarket-reports)&lt;div&gt;&lt;div&gt;Os novos relatórios gerados são de:&lt;/div&gt;&lt;div&gt;Consulta de vendas por período, loja, etc.&lt;/div&gt;&lt;div&gt;&amp;nbsp; &amp;nbsp;Dados para gestão de estoque (atualização da quantidade de produtos no estoque a partir das vendas diárias e cálculo da quantidade de produtos que devem repostos no estoque com base nas vendas diárias )&lt;/div&gt;&lt;/div&gt;" style="text;html=1;align=center;verticalAlign=middle;whiteSpace=wrap;rounded=0;container=0;" parent="1" vertex="1">
          <mxGeometry x="410" y="924.19" width="330" height="125.81" as="geometry" />
        </mxCell>
        <mxCell id="V9F5mqnzi73-AguXH6qU-22" value="" style="group" parent="1" vertex="1" connectable="0">
          <mxGeometry x="-1340" y="888" width="186.75" height="212.00000000000006" as="geometry" />
        </mxCell>
        <mxCell id="V9F5mqnzi73-AguXH6qU-15" value="" style="fontColor=#0066CC;verticalAlign=top;verticalLabelPosition=bottom;labelPosition=center;align=center;html=1;outlineConnect=0;fillColor=#CCCCCC;strokeColor=#6881B3;gradientColor=none;gradientDirection=north;strokeWidth=2;shape=mxgraph.networks.terminal;" parent="V9F5mqnzi73-AguXH6qU-22" vertex="1">
          <mxGeometry x="35" width="108.65" height="90" as="geometry" />
        </mxCell>
        <mxCell id="V9F5mqnzi73-AguXH6qU-16" value="Funcionários da rede de Supermercados&amp;nbsp; solicitam pela Interface WEB a consulta de relatórios para gerenciar estoques e consultas de vendas por período" style="text;html=1;align=center;verticalAlign=middle;whiteSpace=wrap;rounded=0;" parent="V9F5mqnzi73-AguXH6qU-22" vertex="1">
          <mxGeometry y="73.93548387096776" width="186.75" height="138.06451612903228" as="geometry" />
        </mxCell>
        <mxCell id="V9F5mqnzi73-AguXH6qU-23" value="" style="endArrow=classic;html=1;rounded=0;exitX=0.5;exitY=1;exitDx=0;exitDy=0;" parent="1" source="HtvwIsF9TS4IH46_lFR8-5" target="V9F5mqnzi73-AguXH6qU-15" edge="1">
          <mxGeometry width="50" height="50" relative="1" as="geometry">
            <mxPoint x="-990" y="1050" as="sourcePoint" />
            <mxPoint x="-940" y="1000" as="targetPoint" />
          </mxGeometry>
        </mxCell>
        <mxCell id="CNaBNBY_if8dLNSb4yLb-1" value="" style="endArrow=classic;html=1;rounded=0;exitX=1;exitY=0.5;exitDx=0;exitDy=0;exitPerimeter=0;" edge="1" parent="1" source="V9F5mqnzi73-AguXH6qU-15">
          <mxGeometry width="50" height="50" relative="1" as="geometry">
            <mxPoint x="-1000" y="750" as="sourcePoint" />
            <mxPoint x="-930" y="670" as="targetPoint" />
          </mxGeometry>
        </mxCell>
      </root>
    </mxGraphModel>
  </diagram>
</mxfile>
